<?xml version="1.0" encoding="UTF-8"?>
<svg id="Layer_1" data-name="Layer 1" xmlns="http://www.w3.org/2000/svg" viewBox="0 0 1080 538.17">
  <defs>
    <style>
      .cls-1 {
        fill: #175fff;
      }

      .cls-2 {
        fill: #0b0f0d;
      }
    </style>
  </defs>
  <g>
    <path class="cls-2" d="M347.54,351.55l1.88-3.69c3.24,3.17,9.01,5.51,14.97,5.51,8.49,0,12.18-3.56,12.18-8.03,0-12.44-27.92-4.79-27.92-21.58,0-6.67,5.18-12.44,16.72-12.44,5.12,0,10.43,1.49,14.06,4.02l-1.62,3.82c-3.89-2.53-8.42-3.76-12.44-3.76-8.29,0-11.99,3.69-11.99,8.23,0,12.44,27.92,4.92,27.92,21.44,0,6.67-5.31,12.37-16.91,12.37-6.8,0-13.48-2.4-16.84-5.9Z"/>
    <path class="cls-2" d="M394.18,334.38c0-13.22,10.11-23.07,23.84-23.07s23.78,9.78,23.78,23.07-10.17,23.06-23.78,23.06-23.84-9.85-23.84-23.06ZM437,334.38c0-10.82-8.1-18.79-18.98-18.79s-19.11,7.97-19.11,18.79,8.16,18.79,19.11,18.79,18.98-7.97,18.98-18.79Z"/>
    <path class="cls-2" d="M459.02,311.7h4.79v41.21h25.4v4.15h-30.19v-45.35Z"/>
    <path class="cls-2" d="M502.43,337.68v-25.98h4.79v25.79c0,10.75,5.05,15.68,13.86,15.68s13.93-4.92,13.93-15.68v-25.79h4.66v25.98c0,13.02-7,19.76-18.59,19.76s-18.66-6.74-18.66-19.76Z"/>
    <path class="cls-2" d="M568.5,315.85h-15.94v-4.15h36.67v4.15h-15.94v41.21h-4.79v-41.21Z"/>
    <path class="cls-2" d="M603.35,311.7h4.79v45.35h-4.79v-45.35Z"/>
    <path class="cls-2" d="M625.38,334.38c0-13.22,10.11-23.07,23.84-23.07s23.78,9.78,23.78,23.07-10.17,23.06-23.78,23.06-23.84-9.85-23.84-23.06ZM668.2,334.38c0-10.82-8.1-18.79-18.98-18.79s-19.11,7.97-19.11,18.79,8.16,18.79,19.11,18.79,18.98-7.97,18.98-18.79Z"/>
    <path class="cls-2" d="M728.13,311.7v45.35h-3.95l-29.15-36.8v36.8h-4.79v-45.35h3.95l29.22,36.8v-36.8h4.73Z"/>
  </g>
  <g>
    <path class="cls-2" d="M330.84,222.57c0,10.11-2.89,17.09-8.68,20.95-4.99,3.24-13.84,4.86-26.55,4.86h-46.13v28.03h-21.57v-95.68h66.58c13.08,0,22.05,1.33,26.92,4,6.28,3.58,9.43,10.79,9.43,21.64v16.2ZM309.27,223.16v-16.53c0-3.51-1.51-5.72-4.51-6.62-1.99-.56-6.53-.85-13.63-.85h-41.65v30.8h42.16c6.87,0,11.41-.34,13.63-1.02,2.67-.9,4-2.83,4-5.77Z"/>
    <path class="cls-2" d="M448.82,221.63c0,8.44-3.31,13.93-9.94,16.48,5.83,2.72,8.75,7.9,8.75,15.54v22.76h-21.57v-19.79c0-6.29-5.48-9.43-16.43-9.43h-45.14v29.04h-21.57v-95.51h69.55c13.08,0,22.05,1.33,26.92,3.99,6.28,3.57,9.43,10.76,9.43,21.57v15.34ZM427.25,222.14v-15.51c0-3.51-1.62-5.72-4.85-6.62-1.99-.56-6.42-.85-13.28-.85h-44.62v29.95h45.13c5.68,0,9.34-.17,10.98-.51,4.43-.85,6.64-3,6.64-6.45Z"/>
    <path class="cls-2" d="M677,199.33h-66.75v25.11h63.78v18.43h-63.78v33.55h-21.57v-95.51h88.32v18.43Z"/>
    <path class="cls-2" d="M711.8,276.41h-21.57v-95.51h21.57v95.51Z"/>
    <path class="cls-2" d="M852.09,276.41h-31.34l-35.76-37.14-35.16,37.14h-31.59l49.68-49.52-45.18-46.16h30.74l32.02,33.59,32.36-33.59h31.93l-48.32,46.16,50.62,49.52Z"/>
    <polygon class="cls-1" points="480.88 240.43 462.9 240.43 462.9 180.9 555.89 180.95 555.89 198.94 480.88 198.88 480.88 240.43"/>
    <polygon class="cls-1" points="573.7 276.41 462.9 276.41 462.9 258.42 555.71 258.42 555.71 216.87 573.7 216.87 573.7 276.41"/>
  </g>
</svg>