<?xml version="1.0" encoding="UTF-8"?>
<svg id="Layer_1" data-name="Layer 1" xmlns="http://www.w3.org/2000/svg" viewBox="0 0 1080 538.17">
  <defs>
    <style>
      .cls-1 {
        fill: #175fff;
      }

      .cls-2 {
        fill: #fff;
      }
    </style>
  </defs>
  <g>
    <path class="cls-2" d="M329.01,359.48l2.06-4.05c3.55,3.48,9.87,6.04,16.4,6.04,9.3,0,13.35-3.91,13.35-8.81,0-13.63-30.61-5.25-30.61-23.65,0-7.31,5.68-13.63,18.32-13.63,5.61,0,11.43,1.63,15.41,4.4l-1.78,4.19c-4.26-2.77-9.23-4.12-13.63-4.12-9.09,0-13.14,4.05-13.14,9.02,0,13.63,30.61,5.4,30.61,23.51,0,7.31-5.82,13.56-18.53,13.56-7.46,0-14.77-2.63-18.46-6.46Z"/>
    <path class="cls-2" d="M380.15,340.66c0-14.49,11.08-25.28,26.13-25.28s26.06,10.72,26.06,25.28-11.15,25.28-26.06,25.28-26.13-10.79-26.13-25.28ZM427.09,340.66c0-11.86-8.88-20.59-20.81-20.59s-20.95,8.73-20.95,20.59,8.95,20.59,20.95,20.59,20.81-8.74,20.81-20.59Z"/>
    <path class="cls-2" d="M451.23,315.81h5.25v45.17h27.84v4.54h-33.09v-49.71Z"/>
    <path class="cls-2" d="M498.81,344.29v-28.48h5.26v28.26c0,11.79,5.54,17.19,15.2,17.19s15.27-5.4,15.27-17.19v-28.26h5.11v28.48c0,14.27-7.67,21.66-20.38,21.66s-20.45-7.38-20.45-21.66Z"/>
    <path class="cls-2" d="M571.25,320.35h-17.47v-4.54h40.19v4.54h-17.47v45.17h-5.26v-45.17Z"/>
    <path class="cls-2" d="M609.45,315.81h5.25v49.71h-5.25v-49.71Z"/>
    <path class="cls-2" d="M633.6,340.66c0-14.49,11.08-25.28,26.13-25.28s26.06,10.72,26.06,25.28-11.15,25.28-26.06,25.28-26.13-10.79-26.13-25.28ZM680.54,340.66c0-11.86-8.88-20.59-20.81-20.59s-20.95,8.73-20.95,20.59,8.95,20.59,20.95,20.59,20.81-8.74,20.81-20.59Z"/>
    <path class="cls-2" d="M746.23,315.81v49.71h-4.33l-31.96-40.34v40.34h-5.25v-49.71h4.33l32.03,40.34v-40.34h5.18Z"/>
  </g>
  <g>
    <path class="cls-2" d="M310.71,218.1c0,11.08-3.17,18.74-9.52,22.97-5.47,3.55-15.18,5.32-29.11,5.32h-50.57v30.72h-23.65v-104.89h72.99c14.34,0,24.17,1.46,29.51,4.39,6.89,3.92,10.33,11.83,10.33,23.72v17.76ZM287.06,218.74v-18.12c0-3.85-1.65-6.27-4.95-7.26-2.18-.62-7.16-.93-14.94-.93h-45.66v33.76h46.22c7.53,0,12.51-.37,14.94-1.12,2.93-.99,4.39-3.1,4.39-6.33Z"/>
    <path class="cls-2" d="M440.05,217.06c0,9.25-3.63,15.27-10.89,18.06,6.39,2.98,9.59,8.66,9.59,17.04v24.95h-23.65v-21.69c0-6.89-6.01-10.33-18.02-10.33h-49.48v31.84h-23.65v-104.7h76.25c14.34,0,24.18,1.46,29.51,4.38,6.89,3.91,10.33,11.79,10.33,23.65v16.81ZM416.4,217.62v-17c0-3.85-1.77-6.27-5.32-7.26-2.18-.62-7.04-.93-14.56-.93h-48.92v32.83h49.48c6.22,0,10.24-.19,12.04-.56,4.86-.93,7.28-3.29,7.28-7.08Z"/>
    <path class="cls-2" d="M690.19,192.61h-73.18v27.52h69.92v20.2h-69.92v36.77h-23.65v-104.7h96.82v20.2Z"/>
    <path class="cls-2" d="M728.34,277.11h-23.65v-104.7h23.65v104.7Z"/>
    <path class="cls-2" d="M882.12,277.11h-34.35l-39.2-40.71-38.54,40.71h-34.63l54.46-54.28-49.53-50.6h33.7l35.1,36.82,35.47-36.82h35l-52.97,50.6,55.49,54.28Z"/>
    <polygon class="cls-1" points="475.19 237.68 455.48 237.68 455.48 172.41 557.42 172.47 557.42 192.19 475.19 192.13 475.19 237.68"/>
    <polygon class="cls-1" points="576.94 277.11 455.48 277.11 455.48 257.4 557.22 257.4 557.22 211.85 576.94 211.85 576.94 277.11"/>
  </g>
</svg>